<!-- icon666.com - MILLIONS OF FREE VECTOR ICONS --><svg id="Layer_1" enable-background="new 0 0 512 512" viewBox="0 0 512 512" xmlns="http://www.w3.org/2000/svg"><g id="XMLID_1_"><path d="m398.4 160.7c12.2 5 18.1 18.9 13.1 31.2l-36.1 88.7 18.9 10.5c1.7 1 3.4 2.2 4.8 3.5 9.6 9.1 10 24.2 1 33.8l-105.8 111.7c-6.8 7.2-17.3 9.5-26.4 5.7-12.2-5-18-18.9-13-31.1l36.1-88.7-19-10.5c-1.7-1-3.4-2.1-4.8-3.5-9.6-9.1-10-24.2-1-33.8l105.8-111.8c4.5-4.8 10.8-7.5 17.3-7.5 3.2 0 6.2.6 9.1 1.8zm-5.4 23.6c.2-.5.3-1 .3-1.5 0-2.2-1.8-3.9-4-3.9-1.1 0-2.1.5-2.8 1.2l-105.7 111.9c-.2.2-.4.5-.6.8-1 1.9-.4 4.3 1.5 5.3l31.3 17.4c1.7 1 2.5 3 1.7 4.9l-41.5 101.9c-.2.5-.3 1-.3 1.5 0 2.2 1.8 3.9 3.9 3.9 1.1 0 2.1-.5 2.8-1.2l105.7-111.8c.2-.2.4-.5.6-.8 1.1-1.9.4-4.2-1.5-5.3l-31.2-17.6c-1.7-1-2.5-3.1-1.7-4.9z" fill="#000000" style="fill: rgb(255, 191, 0);"></path><path d="m244.1 66.2c12.2 5 18.1 18.9 13.1 31.2l-36.1 88.6 18.9 10.5c1.7 1 3.3 2.2 4.8 3.5 9.6 9.1 10 24.2 1 33.8l-105.8 111.8c-6.8 7.2-17.3 9.5-26.4 5.7-12.2-5-18-18.9-13-31.2l36.1-88.7-19-10.4c-1.7-1-3.3-2.2-4.8-3.5-9.6-9.1-10-24.2-1-33.8l105.8-111.8c4.5-4.8 10.8-7.5 17.3-7.5 3.1 0 6.2.6 9.1 1.8zm-5.4 23.6c.2-.5.3-1 .3-1.5 0-2.2-1.8-3.9-4-3.9-1.1 0-2.1.5-2.8 1.2l-105.7 111.9c-.2.2-.4.5-.6.8-1 1.9-.4 4.2 1.5 5.3l31.3 17.4c1.7.9 2.5 3 1.7 4.9l-41.4 101.8c-.2.5-.3 1-.3 1.5 0 2.2 1.8 3.9 4 3.9 1.1 0 2.1-.5 2.8-1.2l105.7-111.9c.2-.2.4-.5.6-.8 1.1-1.9.4-4.2-1.5-5.3l-31.3-17.4c-1.7-1-2.5-3.1-1.7-4.9z" fill="#000000" style="fill: rgb(255, 191, 0);"></path></g></svg>